# xmcd CD database file
#
# Track frame offsets:
#	183
#	13208
#	27035
#	49440
#	60758
#	76453
#	87473
#	99123
#	110948
#	121403
#	140200
#	153175
#	164993
#	177350
#	190758
#	203185
#	215318
#	225818
#
# Disc length: 3185 seconds
#
# Revision: 2
# Processed by: cddbd v1.5.2PL0 Copyright (c) Steve Scherf et al.
# Submitted via: CDex 1.51
#
DISCID=f40c6f12
DTITLE=Various Blues - All-Time 75 Blues Hits CD1
DYEAR=1991
DGENRE=Blues
TTITLE0=Mannish Boy - Mudy Water
TTITLE1=Blues with a feeling - Little Walter
TTITLE2=Wang Dang Doodle - Howlin´Wolf
TTITLE3=Boom Boom - John Lee Hooker
TTITLE4=Coffee for mama - Lightning Hopkins
TTITLE5=Bo Diddley - Bo Diddley
TTITLE6=Goin´ home - Muddy Waters
TTITLE7=Dark is the night Part 1 - B.B. King
TTITLE8=I done somebody wrong - Muddy Waters
TTITLE9=I got my Mojo working - Muddy Waters
TTITLE10=Roller coaster - Little Walter
TTITLE11=Pickin´the blues - Elmore James
TTITLE12=Road runner - Bo Diddley
TTITLE13=Mojo hand - Lightning Hopkins
TTITLE14=Hobo Blues - John Lee Hooker
TTITLE15=Dark is the night Part 2 - B.B. King
TTITLE16=Who´s beeb talking - Howlin´Wolf
TTITLE17=She moves me - Muddy Waters
EXTD=YEAR: 1991
EXTT0=
EXTT1=
EXTT2=
EXTT3=
EXTT4=
EXTT5=
EXTT6=
EXTT7=
EXTT8=
EXTT9=
EXTT10=
EXTT11=
EXTT12=
EXTT13=
EXTT14=
EXTT15=
EXTT16=
EXTT17=
PLAYORDER=
